<svg xmlns="http://www.w3.org/2000/svg" xml:space="preserve" viewBox="0 0 182.6 256"><radialGradient id="a" cx="291.152" cy="384.318" r="38.282" gradientTransform="matrix(.4025 0 0 .4117 37.06 93.25)" gradientUnits="userSpaceOnUse"><stop offset="0" style="stop-color:#323232;stop-opacity:.92"/><stop offset=".24" style="stop-color:#272727;stop-opacity:.64"/><stop offset=".64" style="stop-color:#0b0b0b;stop-opacity:9.000000e-02"/><stop offset=".79" style="stop-color:#000;stop-opacity:0"/></radialGradient><ellipse cx="154.2" cy="251.5" fill="url(#a)" opacity=".3" rx="21.3" ry="4.5"/><linearGradient id="b" x1="130.878" x2="130.878" y1="1553.409" y2="1426.949" gradientTransform="matrix(-1 0 0 1 285.666 -1344)" gradientUnits="userSpaceOnUse"><stop offset="0" style="stop-color:#3d6a06"/><stop offset=".16" style="stop-color:#588710"/><stop offset=".33" style="stop-color:#6d9d18"/><stop offset=".51" style="stop-color:#7bae1e"/><stop offset=".72" style="stop-color:#84b721"/><stop offset="1" style="stop-color:#87ba22"/></linearGradient><path fill="url(#b)" d="M164.8 88.8c-11.7 47.9-18.9 125-20 149.1h18.6c-3.1-6.9-.8-116.2 1.4-149.1z"/><linearGradient id="c" x1="125.4" x2="125.4" y1="1582.133" y2="1433.045" gradientTransform="matrix(-1 0 0 1 285.666 -1344)" gradientUnits="userSpaceOnUse"><stop offset="0" style="stop-color:#bbe882"/><stop offset=".14" style="stop-color:#bee988;stop-opacity:.92"/><stop offset=".34" style="stop-color:#c8ec9a;stop-opacity:.8"/><stop offset=".58" style="stop-color:#d8f2b7;stop-opacity:.67"/><stop offset=".83" style="stop-color:#eef9e0;stop-opacity:.53"/><stop offset="1" style="stop-color:#fff;stop-opacity:.43"/></linearGradient><path fill="url(#c)" d="M164.8 89s-10 94.6-9 149.1h7.6c-3.1-6.9-.8-116.2 1.4-149.1z" opacity=".28"/><linearGradient id="d" x1="128.314" x2="128.314" y1="1574.702" y2="1441.729" gradientTransform="matrix(-1 0 0 1 285.666 -1344)" gradientUnits="userSpaceOnUse"><stop offset="0" style="stop-color:#48790b"/><stop offset=".82" style="stop-color:#fff;stop-opacity:.43"/></linearGradient><path fill="url(#d)" d="M164.8 88.8c-.2.5-.4 1.1-.4 1.7-3.3 15.6-15.9 107.4-14.4 117.4 5.3 8.8 4.8 28.2 4.8 28.2l7.9-2.3c-2.1-21.5.1-115 2.1-145z" opacity=".33"/><linearGradient id="e" x1="118.336" x2="118.336" y1="1593.74" y2="1548.274" gradientTransform="matrix(-1 0 0 1 285.666 -1344)" gradientUnits="userSpaceOnUse"><stop offset="0" style="stop-color:#5e7814"/><stop offset=".51" style="stop-color:#8aa21f"/><stop offset="1" style="stop-color:#b1c628"/></linearGradient><path fill="url(#e)" d="M182.6 175c-22.5 15.3-30.7 54.7-30.4 77.5l11.8-.5c-1.2-45.4 7.1-62.8 18.6-77z"/><linearGradient id="f" x1="116.786" x2="117.496" y1="1586.142" y2="1549.486" gradientTransform="matrix(-1 0 0 1 285.666 -1344)" gradientUnits="userSpaceOnUse"><stop offset="0" style="stop-color:#82af10"/><stop offset=".82" style="stop-color:#fff;stop-opacity:0"/></linearGradient><path fill="url(#f)" d="M180.8 177.1c-25.6 20.5-25.3 66.7-25 75.4l8-.3c-1-43.5 6.6-61.3 17.2-75.1h-.2z" opacity=".17"/><linearGradient id="g" x1="146.752" x2="146.752" y1="1595.201" y2="1554.245" gradientTransform="matrix(-1 0 0 1 285.666 -1344)" gradientUnits="userSpaceOnUse"><stop offset="0" style="stop-color:#5e7814"/><stop offset=".14" style="stop-color:#758e1a"/><stop offset=".34" style="stop-color:#8fa620"/><stop offset=".55" style="stop-color:#a2b824"/><stop offset=".77" style="stop-color:#adc327"/><stop offset="1" style="stop-color:#b1c628"/></linearGradient><path fill="url(#g)" d="M123.1 204.6c39.4-5.6 31 50.3 30.6 50.6-.4.4-12.5-.8-12.1-2.5 4.5-17.9 2.9-47.2-18.5-48.1z"/><linearGradient id="h" x1="136.88" x2="136.88" y1="1598.291" y2="1551.938" gradientTransform="matrix(-1 0 0 1 285.666 -1344)" gradientUnits="userSpaceOnUse"><stop offset="0" style="stop-color:#fff"/><stop offset="1" style="stop-color:#fff;stop-opacity:0"/></linearGradient><path fill="url(#h)" d="M143 208.9c5.8 15.2 3.4 41 2.9 45.7 2.5.5 5.1.7 7.6.7.4-.5 5.4-33.9-10.5-46.4z" opacity=".08"/><radialGradient id="i" cx="127.831" cy="30.748" r="5.203" gradientTransform="rotate(180 142.833 128.512)" gradientUnits="userSpaceOnUse"><stop offset="0" style="stop-color:#323232"/><stop offset=".29" style="stop-color:#252525;stop-opacity:.67"/><stop offset=".83" style="stop-color:#040404;stop-opacity:7.000000e-02"/><stop offset=".89" style="stop-color:#000;stop-opacity:0"/></radialGradient><ellipse cx="157.8" cy="226.3" fill="url(#i)" opacity=".47" rx="5.4" ry="5"/><radialGradient id="j" cx="135.638" cy="30.748" r="5.203" gradientTransform="rotate(180 142.833 128.512)" gradientUnits="userSpaceOnUse"><stop offset="0" style="stop-color:#323232"/><stop offset=".29" style="stop-color:#252525;stop-opacity:.67"/><stop offset=".83" style="stop-color:#040404;stop-opacity:7.000000e-02"/><stop offset=".89" style="stop-color:#000;stop-opacity:0"/></radialGradient><ellipse cx="150" cy="226.3" fill="url(#j)" opacity=".47" rx="5.4" ry="5"/><circle cx="157.8" cy="226.3" r="3.1" fill="#FFF"/><circle cx="150" cy="226.3" r="3.1" fill="#FFF"/><path fill="#A0CB29" d="M173.1 252.3h2.4l4.4-7.6m-9.7-10.2-7.9 21.2h5.3m-36.8-17.8 2.6 16.4h3.5M123.6 244l1.4 6h3"/><linearGradient id="k" x1="85.928" x2="85.928" y1="64.127" y2="266.536" gradientTransform="rotate(180 65.988 128.512)" gradientUnits="userSpaceOnUse"><stop offset="0" style="stop-color:#3d6a06"/><stop offset=".16" style="stop-color:#588710"/><stop offset=".33" style="stop-color:#6d9d18"/><stop offset=".51" style="stop-color:#7bae1e"/><stop offset=".72" style="stop-color:#84b721"/><stop offset="1" style="stop-color:#87ba22"/></linearGradient><path fill="url(#k)" d="M71.6 231.1c2.7-49.3.5-86.8-1.8-104-.7-5.8-2.7-18.3-5.3-31.8-1.9-10.1-3.1-14.4-3.9-17.5-.9-3.2-2.3-7.6-5.1-16.6-1-3.4-2-6.2-3.2-9.8-1.4-4.1-2.1-6.3-3.2-9-.4-1.1-2.2-5.3-5.3-12.2-2.1-4.8-4.6-9.5-7.4-14-4-5.8-8.1-11.7-14.1-13C11.6.8.7 14.2 0 13.5S4.9 4.3 14.6 1.2C18.3.1 22.3-.2 26.1.5 34.8 2.1 40.4 8 47.3 15.6c3.8 4.3 7.3 8.9 10.4 13.8 4.7 7 8.7 14.5 12 22.3 1.5 3.6 2.5 6.7 4.5 12.7 3.1 9.7 5.6 19.6 7.7 29.6 0 0 .3 1.5.7 3.2 3.9 20.4 6.5 41 7.8 61.8 1.9 26.5 2.3 53 1.4 79.6"/><radialGradient id="l" cx="96.091" cy="374.643" r="38.282" gradientTransform="matrix(.788 0 0 .4117 8.991 93.25)" gradientUnits="userSpaceOnUse"><stop offset="0" style="stop-color:#323232;stop-opacity:.92"/><stop offset=".24" style="stop-color:#272727;stop-opacity:.64"/><stop offset=".64" style="stop-color:#0b0b0b;stop-opacity:9.000000e-02"/><stop offset=".79" style="stop-color:#000;stop-opacity:0"/></radialGradient><ellipse cx="84.7" cy="247.5" fill="url(#l)" opacity=".3" rx="41.8" ry="4.5"/><linearGradient id="m" x1="74.858" x2="74.858" y1="64.905" y2="266.22" gradientTransform="rotate(180 65.988 128.512)" gradientUnits="userSpaceOnUse"><stop offset="0" style="stop-color:#48790b"/><stop offset=".82" style="stop-color:#fff;stop-opacity:.43"/></linearGradient><path fill="url(#m)" d="M80.2 232.6c-.1-8.8-.3-21.7-.8-37.3-1-33.6-1.5-50.8-4-69.7-1.8-13.8-4-24.5-8.5-46.1-3-16.8-8-33.2-14.9-48.8-3.2-7.2-7-13.6-13.5-19.7C30.4 3.5 22.2.7 22.5.1c.3-.6 9.1 1.7 17.2 8.1 4.1 3.2 6.7 6.3 9.5 9.6 2.4 2.9 5.7 7.3 10.7 16.1 4.3 7.6 9.3 16.4 13.6 28.7 1.8 5.3 2.9 10.2 5.1 19.6 1.6 6.9 4.7 20.4 6.9 33.5.9 5.3 3.4 21.1 5.1 58.7.7 16.6 1.3 38 1 63" opacity=".33"/><linearGradient id="n" x1="76.244" x2="76.244" y1="64.159" y2="266.695" gradientTransform="rotate(180 65.988 128.512)" gradientUnits="userSpaceOnUse"><stop offset="0" style="stop-color:#bbe882"/><stop offset=".14" style="stop-color:#bee988;stop-opacity:.92"/><stop offset=".34" style="stop-color:#c8ec9a;stop-opacity:.8"/><stop offset=".58" style="stop-color:#d8f2b7;stop-opacity:.67"/><stop offset=".83" style="stop-color:#eef9e0;stop-opacity:.53"/><stop offset="1" style="stop-color:#fff;stop-opacity:.43"/></linearGradient><path fill="url(#n)" d="M83.2 237c1.8-61.1-1.2-105.8-3.5-117.8-5.6-28.2-6.3-29.1-7.6-34-1.3-4.9-2.5-8.9-3.7-12.7-2.2-7.6-3.3-11.2-4.2-13.9-2.7-8.4-6.2-16.5-10.3-24.3-4.6-8.6-10.2-16.8-16.5-24.3-2.3-2.9-5.3-5.3-8.7-7-3-1.2-6.2-2.1-9.4-2.6 2.2-.5 4.6-.4 6.8.3 3 .7 10.1 2.9 21.1 15.1 3.8 4.3 7.3 8.9 10.4 13.8 4.7 7 8.7 14.5 12 22.3 1.5 3.6 2.5 6.7 4.5 12.7 3.1 9.7 5.6 19.6 7.7 29.6 0 0 .3 1.5.7 3.2 3.9 20.4 6.5 41 7.8 61.8 1.9 26.5 2.3 53 1.4 79.6" opacity=".28"/><linearGradient id="o" x1="-22.018" x2="-22.018" y1="1587.963" y2="1509.477" gradientTransform="translate(82.198 -1344)" gradientUnits="userSpaceOnUse"><stop offset="0" style="stop-color:#5e7814"/><stop offset=".51" style="stop-color:#8aa21f"/><stop offset="1" style="stop-color:#b1c628"/></linearGradient><path fill="url(#o)" d="m65.8 247.9 18.9.9c.5-39.3-12.9-107.4-49.1-133.8 18.5 24.5 31.8 54.5 30.2 132.9z"/><linearGradient id="p" x1="-24.485" x2="-23.272" y1="1574.854" y2="1511.605" gradientTransform="translate(82.198 -1344)" gradientUnits="userSpaceOnUse"><stop offset="0" style="stop-color:#82af10"/><stop offset=".82" style="stop-color:#fff;stop-opacity:0"/></linearGradient><path fill="url(#p)" d="M38.3 118.6c17.2 24 29.3 54.7 27.7 129.6l12.9.6c.5-15.1.8-94.9-40.6-130.2z" opacity=".17"/><linearGradient id="q" x1="60.909" x2="60.909" y1="1586.96" y2="1509.02" gradientTransform="translate(48.15 -1344)" gradientUnits="userSpaceOnUse"><stop offset="0" style="stop-color:#5e7814"/><stop offset=".14" style="stop-color:#758e1a"/><stop offset=".34" style="stop-color:#8fa620"/><stop offset=".55" style="stop-color:#a2b824"/><stop offset=".77" style="stop-color:#adc327"/><stop offset="1" style="stop-color:#b1c628"/></linearGradient><path fill="url(#q)" d="M104.2 246c.7 3.2-21.6 5.3-22.4 4.6-.8-.7-16.2-107.2 56.4-96.5-39.3 1.9-42.4 57.6-34 91.9z"/><linearGradient id="r" x1="42.423" x2="42.423" y1="1592.88" y2="1504.533" gradientTransform="translate(48.15 -1344)" gradientUnits="userSpaceOnUse"><stop offset="0" style="stop-color:#fff"/><stop offset="1" style="stop-color:#fff;stop-opacity:0"/></linearGradient><path fill="url(#r)" d="M81.8 250.7c4.7.1 9.5-.3 14.1-1.3-.9-9-5.3-58 5.3-86.9-29.3 23.9-20 87.7-19.4 88.2z" opacity=".08"/><path fill="#A0CB29" d="M104.2 248.4h2.9l5.2-8.9m-10-12.5L93 252h6.3m-43.6-15.3 3.4 14.8h4.6m-15.7-10 1.7 7.1h3.5"/><radialGradient id="s" cx="196.648" cy="59.366" r="8.606" gradientTransform="rotate(180 142.833 128.512)" gradientUnits="userSpaceOnUse"><stop offset="0" style="stop-color:#323232"/><stop offset=".29" style="stop-color:#252525;stop-opacity:.67"/><stop offset=".83" style="stop-color:#040404;stop-opacity:7.000000e-02"/><stop offset=".89" style="stop-color:#000;stop-opacity:0"/></radialGradient><ellipse cx="89" cy="197.7" fill="url(#s)" opacity=".47" rx="9" ry="8.2"/><circle cx="89" cy="197.5" r="5.9" fill="#FFF"/><radialGradient id="t" cx="211.479" cy="59.366" r="8.606" gradientTransform="rotate(180 142.833 128.512)" gradientUnits="userSpaceOnUse"><stop offset="0" style="stop-color:#323232"/><stop offset=".29" style="stop-color:#252525;stop-opacity:.67"/><stop offset=".83" style="stop-color:#040404;stop-opacity:7.000000e-02"/><stop offset=".89" style="stop-color:#000;stop-opacity:0"/></radialGradient><ellipse cx="74.2" cy="197.7" fill="url(#t)" opacity=".47" rx="9" ry="8.2"/><circle cx="74.2" cy="197.5" r="5.9" fill="#FFF"/></svg>